<svg width="511" height="584" viewBox="0 0 511 584" fill="none" xmlns="http://www.w3.org/2000/svg">
<g clip-path="url(#clip0)">
<path d="M453.08 238.607L139.049 57.1777C138.52 56.8048 137.909 56.5656 137.268 56.4803C136.627 56.395 135.975 56.4663 135.367 56.688L135.053 56.8745L131.627 58.8567L133.596 61.6435V273.004C133.699 274.915 134.251 276.774 135.207 278.431C136.162 280.088 137.495 281.497 139.096 282.542L452.696 463.762L453.139 466.572L456.949 464.368C457.515 463.974 457.964 463.435 458.251 462.807C458.538 462.18 458.652 461.487 458.58 460.8V248.145C458.477 246.235 457.925 244.376 456.969 242.718C456.014 241.061 454.682 239.653 453.08 238.607Z" fill="#D6D8E5"/>
<path d="M454.758 250.36V463.004C454.758 466.502 452.311 467.936 449.259 466.175L135.227 284.734C133.626 283.689 132.294 282.28 131.338 280.623C130.383 278.966 129.831 277.107 129.728 275.196V62.5645C129.728 59.0665 132.186 57.6206 135.227 59.3813L449.259 240.823C450.862 241.866 452.196 243.274 453.151 244.931C454.107 246.589 454.658 248.449 454.758 250.36Z" fill="#FAFBFC"/>
<path d="M334.934 207.883L142.113 96.4718V85.3481L334.934 196.759V207.883Z" fill="#E9EAF2"/>
<path d="M324.937 215.94L142.113 110.301V104.739L324.937 210.378V215.94Z" fill="#E9EAF2"/>
<path d="M303.662 213.609L142.113 120.259V114.697L303.662 208.047V213.609Z" fill="#E9EAF2"/>
<path d="M293.397 217.631L142.113 130.228V124.666L293.397 212.069V217.631Z" fill="#E9EAF2"/>
<path d="M441.837 352.397L370.984 311.459V300.335L441.837 341.262V352.397Z" fill="#E9EAF2"/>
<path d="M438.166 364.104L370.984 325.288V319.726L438.166 358.542V364.104Z" fill="#E9EAF2"/>
<path d="M430.348 369.549L370.984 335.245V329.684L430.348 363.987V369.549Z" fill="#E9EAF2"/>
<path d="M426.573 377.326L370.984 345.215V339.653L426.573 371.765V377.326Z" fill="#E9EAF2"/>
<path d="M334.934 268.189L142.113 156.777V145.654L334.934 257.065V268.189Z" fill="#E9EAF2"/>
<path d="M324.937 276.246L142.113 170.618V165.044L324.937 270.684V276.246Z" fill="#E9EAF2"/>
<path d="M303.662 273.914L142.113 180.575V175.014L303.662 268.352V273.914Z" fill="#E9EAF2"/>
<path d="M293.397 277.948L142.113 190.533V184.971L293.397 272.375V277.948Z" fill="#E9EAF2"/>
<path d="M334.934 328.506L142.113 217.095V205.959L334.934 317.382V328.506Z" fill="#E9EAF2"/>
<path d="M324.937 336.563L142.113 230.924V225.362L324.937 330.99V336.563Z" fill="#E9EAF2"/>
<path d="M303.662 334.231L142.113 240.881V235.319L303.662 328.658V334.231Z" fill="#E9EAF2"/>
<path d="M293.397 338.254L142.113 250.85V245.277L293.397 332.692V338.254Z" fill="#E9EAF2"/>
<path d="M334.934 388.811L142.113 277.4V266.276L334.934 377.688V388.811Z" fill="#E9EAF2"/>
<path d="M324.949 391.307V394.362L142.113 288.722V285.667L324.949 391.307Z" fill="#E9EAF2"/>
<path d="M439.635 328.681L373.221 290.296C372.552 289.814 372.005 289.183 371.623 288.452C371.24 287.721 371.034 286.911 371.019 286.087V220.523C371.019 218.902 372.009 218.191 373.221 218.855L439.635 257.24C440.303 257.722 440.851 258.353 441.233 259.084C441.615 259.815 441.822 260.625 441.837 261.449V327.013C441.837 328.634 440.846 329.38 439.635 328.681Z" fill="#E9EAF2"/>
<path d="M453.08 182.325L139.049 0.883295C138.545 0.531275 137.96 0.313398 137.348 0.250165C136.737 0.186931 136.119 0.28042 135.554 0.521835H135.484L131.988 2.48072L133.526 4.97596V39.4546C133.526 43.5006 135.996 48.2112 139.037 49.9486L452.405 231.028L452.568 233.967L456.541 231.775L456.634 231.716L456.751 231.658C457.916 230.97 458.58 229.431 458.58 227.262V192.854C458.58 188.796 456.11 184.085 453.08 182.325Z" fill="#D6D8E5"/>
<path d="M449.259 233.535L135.227 52.0942C132.186 50.3335 129.728 45.6229 129.728 41.6002V7.22649C129.728 3.18047 132.186 1.31487 135.227 3.06387L449.259 184.458C452.3 186.219 454.77 190.93 454.77 194.952V229.361C454.77 233.43 452.3 235.284 449.259 233.535Z" fill="#FAFBFC"/>
<path d="M439.635 212.547L144.315 41.9264C143.651 41.4426 143.109 40.81 142.733 40.0791C142.357 39.3482 142.156 38.5393 142.148 37.7172V25.3576C142.148 23.7368 143.127 23.0256 144.35 23.6902L439.635 194.323C440.305 194.803 440.853 195.435 441.235 196.165C441.618 196.896 441.824 197.707 441.837 198.532V210.88C441.837 212.512 440.846 213.258 439.635 212.547Z" fill="#E9EAF2"/>
<path d="M440.182 212.874L421.085 201.832V183.607L440.182 194.637C440.852 195.118 441.4 195.749 441.783 196.48C442.165 197.211 442.371 198.022 442.384 198.847V211.206C442.384 212.827 441.394 213.608 440.182 212.874Z" fill="#039BE5"/>
<path d="M152.017 36.9941C151.362 36.4423 150.785 35.8028 150.304 35.0935C149.985 34.5904 149.808 34.0102 149.792 33.4145C149.792 32.7926 150.002 32.4039 150.421 32.2485C150.707 32.18 151.005 32.1758 151.293 32.2363C151.581 32.2968 151.852 32.4204 152.087 32.5983C153.011 33.1362 153.741 33.9524 154.173 34.9303C154.368 35.363 154.471 35.8315 154.476 36.3062L153.578 35.7815C153.577 35.3074 153.444 34.8432 153.194 34.4406C152.918 34.0073 152.537 33.6504 152.087 33.4028C151.943 33.2913 151.778 33.2101 151.602 33.164C151.426 33.1179 151.242 33.1079 151.062 33.1346C150.817 33.2163 150.689 33.4611 150.689 33.8576C150.702 34.2231 150.823 34.5764 151.038 34.872C151.369 35.3523 151.761 35.7874 152.204 36.1662C152.701 36.588 153.165 37.048 153.59 37.5421C153.879 37.8964 154.118 38.2888 154.301 38.7081C154.449 39.0788 154.524 39.4748 154.522 39.8741C154.522 40.5038 154.313 40.8885 153.881 41.0401C153.278 41.1301 152.663 40.9794 152.169 40.6204C151.685 40.3317 151.245 39.9743 150.864 39.5593C150.484 39.1473 150.169 38.6794 149.932 38.1718C149.726 37.7294 149.615 37.2488 149.605 36.7609L150.503 37.2856C150.51 37.7799 150.669 38.2599 150.957 38.6615C151.254 39.132 151.652 39.5303 152.122 39.8275C152.435 40.0557 152.821 40.1595 153.206 40.119C153.462 40.0374 153.578 39.8042 153.578 39.4194C153.576 39.0307 153.454 38.6522 153.229 38.335C152.877 37.8437 152.47 37.3939 152.017 36.9941Z" fill="#B0B3C1"/>
<path d="M157.622 43.8271C156.92 43.4093 156.344 42.8089 155.955 42.0898C155.536 41.3419 155.315 40.4988 155.315 39.6412V39.4663C155.29 38.9864 155.391 38.5084 155.606 38.0787C155.682 37.9243 155.793 37.79 155.931 37.6867C156.069 37.5834 156.229 37.5139 156.398 37.4841C156.805 37.4205 157.221 37.512 157.563 37.7406C158.22 38.1196 158.75 38.6831 159.09 39.3613C159.465 40.1261 159.653 40.9696 159.637 41.8216V42.2064L156.13 40.2592C156.143 40.8334 156.291 41.3965 156.561 41.9032C156.796 42.3852 157.164 42.7898 157.622 43.0692C157.848 43.2245 158.116 43.306 158.391 43.3024C158.601 43.2836 158.798 43.1931 158.95 43.0459L159.474 43.8271C159.101 44.3052 158.46 44.3168 157.622 43.8271ZM157.517 38.5568C157.393 38.4618 157.245 38.4046 157.09 38.3921C156.935 38.3797 156.78 38.4126 156.643 38.4868C156.503 38.6079 156.392 38.7585 156.317 38.9279C156.242 39.0974 156.206 39.2812 156.212 39.4663L158.728 40.9238V40.8422C158.717 40.3617 158.593 39.8906 158.367 39.4663C158.176 39.088 157.881 38.7723 157.517 38.5568Z" fill="#B0B3C1"/>
<path d="M163.692 47.2202C163.621 47.001 163.578 46.7739 163.564 46.544C163.339 46.6631 163.086 46.7164 162.832 46.6979C162.579 46.6793 162.335 46.5896 162.131 46.439C161.655 46.1488 161.255 45.7491 160.965 45.273C160.661 44.83 160.495 44.3065 160.488 43.7689C160.488 43.1626 160.686 42.8128 161.082 42.7078C161.68 42.6488 162.278 42.8151 162.76 43.1742L163.599 43.6523V43.1975C163.598 42.853 163.506 42.5149 163.331 42.2181C163.14 41.8954 162.866 41.6296 162.538 41.4485C162.311 41.2905 162.031 41.2277 161.758 41.2737C161.66 41.3031 161.577 41.3661 161.521 41.4515C161.466 41.5368 161.442 41.639 161.455 41.74L160.581 41.2387C160.576 41.1117 160.597 40.985 160.643 40.8667C160.689 40.7483 160.759 40.6407 160.849 40.5507C160.949 40.4645 161.066 40.4002 161.193 40.362C161.319 40.3238 161.452 40.3127 161.583 40.3292C161.939 40.3699 162.281 40.4894 162.585 40.679C163.142 40.9828 163.611 41.4244 163.948 41.9616C164.27 42.4637 164.447 43.0445 164.461 43.6406V46.3224C164.452 46.7871 164.511 47.2507 164.636 47.6983V47.7799L163.692 47.2202ZM162.259 45.7044C162.489 45.8481 162.757 45.9174 163.028 45.9027C163.136 45.8991 163.242 45.867 163.334 45.8097C163.426 45.7524 163.501 45.6719 163.552 45.5762V44.4102L162.876 44.0137C161.828 43.4074 161.303 43.4657 161.303 44.177C161.302 44.4926 161.395 44.8013 161.571 45.0631C161.745 45.3293 161.981 45.5493 162.259 45.7044Z" fill="#B0B3C1"/>
<path d="M168.189 44.9116C168.056 44.8052 167.916 44.7078 167.77 44.6201C167.211 44.2937 166.822 44.352 166.605 44.795V48.9227L165.754 48.4213V42.5913L166.582 43.0694V43.7456C166.861 43.3958 167.257 43.3609 167.747 43.664C167.886 43.7406 168.012 43.839 168.12 43.9555L168.189 44.9116Z" fill="#B0B3C1"/>
<path d="M170.916 50.6948C171.031 50.7761 171.163 50.8308 171.302 50.8549C171.441 50.8791 171.584 50.8722 171.72 50.8347C171.836 50.7891 171.936 50.7085 172.004 50.6042C172.073 50.4998 172.108 50.3767 172.104 50.2517L172.908 50.7181C172.911 51.0055 172.807 51.2837 172.617 51.4993C172.521 51.5967 172.407 51.6737 172.281 51.7258C172.155 51.7779 172.019 51.804 171.883 51.8025C171.54 51.7933 171.206 51.6927 170.916 51.511C170.216 51.1018 169.649 50.4983 169.285 49.7736C168.873 48.9983 168.661 48.1329 168.667 47.2551V47.0802C168.642 46.6053 168.739 46.1319 168.947 45.7043C169.016 45.5518 169.123 45.4193 169.258 45.3194C169.392 45.2195 169.55 45.1553 169.716 45.133C170.128 45.1057 170.538 45.2165 170.881 45.4478C171.462 45.7864 171.948 46.2681 172.291 46.847C172.648 47.4065 172.853 48.0496 172.885 48.7126L172.081 48.2462C172.048 47.834 171.92 47.4351 171.708 47.0802C171.504 46.7379 171.22 46.45 170.881 46.2407C170.446 45.9997 170.108 45.9997 169.867 46.2407C169.577 46.6327 169.448 47.1207 169.506 47.6049V47.7914C169.496 48.3978 169.619 48.9989 169.867 49.5521C170.09 50.0326 170.456 50.4319 170.916 50.6948Z" fill="#B0B3C1"/>
<path d="M174.773 48.5027C174.982 48.3282 175.246 48.2326 175.518 48.2326C175.791 48.2326 176.055 48.3282 176.264 48.5027C176.781 48.8124 177.202 49.2599 177.48 49.7952C177.758 50.3306 177.881 50.9327 177.837 51.5343V55.3821L176.975 54.8807V51.0329C176.986 50.6603 176.902 50.2909 176.73 49.9602C176.537 49.6421 176.264 49.3806 175.938 49.2023C175.72 49.0619 175.46 49.004 175.204 49.039C175.096 49.0638 174.995 49.1123 174.909 49.1808C174.822 49.2494 174.752 49.3364 174.703 49.4355V53.5748L173.84 53.0734V44.8647L174.703 45.3545L174.773 48.5027Z" fill="#B0B3C1"/>
<path d="M179.142 55.6383C179.134 55.5713 179.143 55.5034 179.168 55.4405C179.192 55.3776 179.231 55.3215 179.282 55.2769C179.363 55.2186 179.503 55.2769 179.678 55.2769C179.842 55.3781 179.978 55.5183 180.074 55.685C180.165 55.8407 180.213 56.0177 180.214 56.198C180.222 56.26 180.213 56.3229 180.188 56.3803C180.164 56.4378 180.124 56.4875 180.074 56.5245C179.981 56.5828 179.853 56.5245 179.678 56.5245C179.51 56.4333 179.373 56.2956 179.282 56.1281C179.193 55.98 179.144 55.8111 179.142 55.6383Z" fill="#B0B3C1"/>
<path d="M181.647 57.0845C181.638 57.0191 181.647 56.9526 181.671 56.8913C181.696 56.8301 181.735 56.7761 181.787 56.7347C181.868 56.6647 182.008 56.7347 182.183 56.7347C182.342 56.8307 182.475 56.9655 182.569 57.1265C182.663 57.2875 182.714 57.4696 182.719 57.6558C182.727 57.7178 182.718 57.7807 182.693 57.8382C182.669 57.8956 182.629 57.9453 182.579 57.9823C182.498 57.9823 182.358 57.9823 182.183 57.9823C182.016 57.8911 181.878 57.7534 181.787 57.5859C181.696 57.4344 181.648 57.2612 181.647 57.0845Z" fill="#B0B3C1"/>
<path d="M184.152 58.5303C184.143 58.4649 184.152 58.3984 184.176 58.3371C184.201 58.2759 184.24 58.2219 184.292 58.1805C184.373 58.1105 184.513 58.1805 184.688 58.1805C184.857 58.2689 184.996 58.4073 185.084 58.5769C185.173 58.7333 185.222 58.9099 185.224 59.09C185.232 59.1536 185.223 59.2182 185.198 59.2774C185.174 59.3366 185.134 59.3885 185.084 59.4281C185.003 59.4281 184.863 59.4281 184.688 59.3582C184.521 59.2669 184.383 59.1293 184.292 58.9617C184.212 58.8308 184.164 58.6831 184.152 58.5303Z" fill="#B0B3C1"/>
<path d="M435.988 205.167L434.123 201.96C434.421 201.654 434.65 201.287 434.795 200.885C434.94 200.483 434.997 200.054 434.962 199.628C434.889 198.271 434.497 196.951 433.819 195.774C433.141 194.597 432.195 193.597 431.059 192.854C428.892 191.606 427.144 192.62 427.144 195.116C427.213 196.488 427.608 197.824 428.298 199.012C428.987 200.201 429.949 201.207 431.106 201.948C431.769 202.395 432.581 202.563 433.366 202.415L435.242 205.668C435.463 206.041 435.813 206.251 436.034 206.123C436.256 205.994 436.197 205.551 435.988 205.167ZM433.226 200.922C433.158 200.899 433.084 200.899 433.016 200.922C432.963 200.96 432.922 201.012 432.9 201.074C432.597 201.154 432.281 201.17 431.972 201.12C431.662 201.07 431.367 200.955 431.106 200.782C430.251 200.226 429.54 199.476 429.029 198.592C428.519 197.709 428.225 196.717 428.169 195.699C428.169 193.821 429.486 193.063 431.106 194.008C431.959 194.565 432.668 195.316 433.177 196.199C433.685 197.083 433.977 198.074 434.03 199.092C434.056 199.439 433.996 199.788 433.856 200.107C433.716 200.426 433.499 200.706 433.226 200.922Z" fill="white"/>
<path d="M394.322 256.33C375.446 224.499 343.673 208.524 323.353 220.546L305.689 230.702L312.458 241.977C313.548 240.241 314.838 238.641 316.303 237.208C333.478 231.635 357.084 244.939 371.648 269.436C386.212 293.934 386.515 321.078 373.407 333.496C371.683 334.04 369.906 334.395 368.106 334.557L374.712 345.541L391.689 335.805C412.009 323.737 413.186 288.151 394.322 256.33Z" fill="#D6D8E5"/>
<path d="M377.334 266.078C358.458 234.247 326.685 218.272 306.365 230.294C286.044 242.315 284.868 277.948 303.743 309.78C322.618 341.612 354.392 357.586 374.712 345.553C395.033 333.52 396.209 297.887 377.334 266.078ZM373.407 333.508C356.221 339.082 332.627 325.778 318.063 301.268C303.498 276.759 303.195 249.638 316.303 237.22C333.478 231.646 357.084 244.951 371.648 269.448C386.212 293.946 386.515 321.079 373.407 333.497V333.508Z" fill="#B1B4C4"/>
<path d="M318.086 301.257C303.557 276.771 303.219 249.626 316.327 237.208C323.819 234.771 332.546 235.937 341.203 240.053C330.576 234.993 319.869 234.328 311.445 239.33C294.142 249.603 293.047 279.756 308.998 306.655C324.949 333.555 351.922 347.045 369.225 336.773C370.746 335.844 372.157 334.744 373.431 333.496C356.221 339.07 332.592 325.766 318.086 301.257Z" fill="#A1A5B5"/>
<path opacity="0.1" d="M371.683 269.436C357.154 244.95 333.513 231.635 316.338 237.208C303.23 249.626 303.522 276.759 318.098 301.256C332.674 325.754 356.256 339.07 373.442 333.496C386.515 321.078 386.177 293.946 371.683 269.436Z" fill="#3E7EFF"/>
<path d="M395.324 308.882L433.413 330.861V340.679L395.324 318.7V308.882Z" fill="#B1B4C4"/>
<path d="M403.818 303.973L441.907 325.952L433.413 330.861L395.324 308.882L403.818 303.973Z" fill="#D6D8E5"/>
<path d="M425.338 325.311C428.938 319.225 435.009 316.17 438.889 318.478L508.075 358.729L494.898 380.65L425.839 340.481C421.959 338.172 421.784 331.374 425.338 325.311Z" fill="#039BE5"/>
<path d="M508.448 373.817C504.836 379.892 498.778 382.958 494.898 380.65C491.018 378.341 490.785 371.555 494.397 365.491C498.009 359.428 504.067 356.35 507.947 358.659C511.827 360.967 512.049 367.742 508.448 373.817Z" fill="#0379E5"/>
<path opacity="0.3" d="M427.867 498.952L147.159 331.374C145.807 330.605 145.993 329.241 147.531 328.343C148.328 327.9 149.217 327.65 150.128 327.614C151.039 327.577 151.945 327.755 152.775 328.133L433.436 495.71C434.788 496.492 434.601 497.844 433.063 498.742C432.272 499.177 431.391 499.423 430.49 499.459C429.588 499.496 428.69 499.322 427.867 498.952Z" fill="#D6D8E5"/>
<path opacity="0.4" d="M71.0556 572.777L27.3624 547.766L92.7623 510.303L136.455 535.313L71.0556 572.777Z" fill="#D6D8E5"/>
<path d="M71.9644 522.347L35.7748 501.429L71.9644 480.523L108.154 501.429L71.9644 522.347Z" fill="#D6D8E5"/>
<path d="M71.9644 564.16L35.7748 543.254V501.43L71.9644 522.348V564.16Z" fill="#B1B6C4"/>
<path d="M108.154 543.254L71.9644 564.16V522.348L108.154 501.43V543.254Z" fill="#C4C7D6"/>
<path d="M120.575 530.09C123.713 530.949 127.065 530.529 129.896 528.924C132.144 528.994 144.332 523.77 145.986 528.154C147.443 532.002 142.165 535.558 139.345 536.234C133.181 537.727 128.626 540.805 126.156 541.318C124.315 541.715 121.926 541.971 120.458 540.514C118.722 538.811 118.873 532.387 120.575 530.09Z" fill="#000A25"/>
<path d="M126.179 540.292C128.649 539.768 133.17 536.701 139.368 535.209C141.699 534.637 145.8 532.049 146.208 528.959C146.755 532.457 141.99 535.64 139.368 536.27C133.205 537.762 128.649 540.84 126.179 541.354C124.338 541.75 121.949 542.006 120.481 540.549C120.098 540.132 119.823 539.627 119.677 539.08C120.592 539.774 121.656 540.246 122.785 540.456C123.913 540.667 125.076 540.611 126.179 540.292Z" fill="#9C73FF"/>
<path d="M98.6231 518.383C101.763 519.234 105.111 518.816 107.944 517.217C110.193 517.287 122.369 512.063 124.035 516.448C125.48 520.295 120.202 523.84 117.382 524.528C111.253 526.055 106.674 529.134 104.262 529.635C102.421 530.031 100.033 530.276 98.5648 528.83C96.7472 527.105 96.8987 520.668 98.6231 518.383Z" fill="#000A25"/>
<path d="M104.262 528.585C106.733 528.061 111.253 524.994 117.44 523.502C119.771 522.93 123.884 520.342 124.291 517.252C124.839 520.75 120.073 523.921 117.44 524.563C111.253 526.055 106.674 529.133 104.262 529.635C102.421 530.031 100.033 530.276 98.5648 528.83C98.187 528.409 97.9118 527.906 97.7609 527.361C98.6745 528.058 99.738 528.531 100.867 528.744C101.996 528.956 103.158 528.902 104.262 528.585Z" fill="#9C73FF"/>
<path d="M64.4026 503.202C73.9102 507.376 82.8703 508.041 90.1991 504.099L97.7725 499.727C98.2269 509.51 98.658 518.908 98.658 518.908C98.658 518.908 104.484 523.303 108.981 519.386C108.981 519.386 109.925 505.65 110.88 492.148L118.827 487.566C118.643 488.286 118.541 489.026 118.524 489.769C118.582 492.334 120.365 530.474 120.365 530.474C120.365 530.474 126.191 533.972 130.735 530.031C130.735 530.031 133.776 485.84 134.475 478.786C135.267 470.845 126.459 466.927 120.877 468.968C119.584 469.434 116.392 470.624 112.36 472.128C112.535 469.924 112.675 468.198 112.78 467.219C113.56 459.278 104.752 455.372 99.1824 457.401C94.1023 459.255 59.8119 472.128 59.8119 472.128C60.0146 475.424 60.4036 478.705 60.9771 481.957L47.4264 480.791C46.6574 493.559 54.9067 499.016 64.4026 503.202ZM88.0552 481.234L97.12 475.999C96.9705 476.639 96.8731 477.29 96.8288 477.946L88.0552 481.234Z" fill="#039BE5"/>
<path d="M40.0393 442.185C40.0393 442.185 41.2045 459.045 43.3716 461.471C45.5388 463.896 53.054 465.505 53.054 465.505L58.8215 474.996C58.8215 474.996 53.5667 444.844 52.4249 444.121C51.283 443.398 40.0393 442.185 40.0393 442.185Z" fill="#FFCEA9"/>
<path d="M51.1199 423.413C49.7169 422.761 48.1231 422.651 46.6439 423.103C45.1647 423.555 43.9041 424.537 43.1037 425.861C40.9831 429.359 38.781 441.416 38.5829 443.479C38.5829 443.479 41.554 447.584 46.0165 446.896L51.1199 423.413Z" fill="#EDEDED"/>
<path d="M53.1473 423.622C56.0602 423.762 58.2274 424.508 58.5886 423.622C58.8996 422.117 59.1214 420.595 59.2527 419.063C58.9148 418.212 58.6235 417.302 58.6235 417.302C54.9649 415.052 53.8114 411.099 53.3337 406.494C52.5181 398.623 56.7593 391.732 64.6357 390.904C72.0227 390.135 77.4523 395.335 78.9204 402.483C79.7011 405.981 81.2507 412.673 79.1535 418.468C77.9883 421.71 76.462 424.298 74.9473 424.788C73.4808 424.743 72.0182 424.614 70.5663 424.403C70.5663 424.403 70.1701 426.595 69.9022 427.995C69.6342 429.394 69.739 430.14 72.5238 431.866C75.3085 433.591 68.3059 437.124 63.7269 436.775C59.1478 436.425 53.9862 433.661 52.5764 430.7C51.0034 427.423 51.1432 423.529 53.1473 423.622Z" fill="#FFCEA9"/>
<path d="M126.925 475.207C126.93 475.621 126.825 476.03 126.621 476.391C126.416 476.752 126.118 477.051 125.759 477.259L103.552 490.085C103.197 490.289 102.796 490.397 102.386 490.397C101.977 490.397 101.576 490.289 101.221 490.085L70.0536 472.105C69.6945 471.898 69.3972 471.598 69.1924 471.237C68.9876 470.877 68.8826 470.468 68.8884 470.053V469.878L126.925 475.207Z" fill="#E5E5E5"/>
<path d="M125.748 477.258L103.54 490.084C103.186 490.29 102.784 490.399 102.375 490.399V475.241H126.925C126.923 475.651 126.813 476.054 126.607 476.408C126.4 476.762 126.104 477.055 125.748 477.258Z" fill="#E5E5E5"/>
<path d="M103.19 488.918C102.936 489.061 102.649 489.137 102.357 489.137C102.066 489.137 101.779 489.061 101.524 488.918L69.1798 470.262C68.772 470.018 68.772 469.633 69.1798 469.4L93.0071 455.594L126.925 475.206L103.19 488.918Z" fill="#F4F4F4"/>
<path d="M82.4741 475.206L82.6372 475.299L92.9954 481.281L98.693 477.993L98.8445 477.9L88.3232 471.825L82.4741 475.206Z" fill="#BFBFBF"/>
<path d="M82.6372 475.299L92.9954 481.281L98.693 477.993L88.3231 472.011L82.6372 475.299Z" fill="#E5E5E5"/>
<path d="M118.128 476.174L119.631 477.037C119.705 477.074 119.787 477.093 119.87 477.093C119.953 477.093 120.034 477.074 120.109 477.037L121.53 476.209C121.67 476.128 121.681 476.011 121.53 475.941L120.039 475.078C119.964 475.041 119.883 475.022 119.8 475.022C119.717 475.022 119.635 475.041 119.561 475.078L118.128 475.906C118.023 475.999 118.011 476.104 118.128 476.174Z" fill="#000A25"/>
<path d="M116.019 474.95L117.51 475.813C117.584 475.849 117.666 475.869 117.749 475.869C117.832 475.869 117.914 475.849 117.988 475.813L119.409 474.985C119.561 474.903 119.573 474.786 119.409 474.716L117.918 473.854C117.844 473.817 117.762 473.797 117.679 473.797C117.596 473.797 117.515 473.817 117.44 473.854L116.019 474.67C115.914 474.751 115.914 474.833 116.019 474.95Z" fill="#000A25"/>
<path d="M113.898 473.725L115.401 474.588C115.473 474.625 115.553 474.644 115.634 474.644C115.715 474.644 115.795 474.625 115.867 474.588L117.3 473.772C117.44 473.69 117.452 473.562 117.3 473.492L115.797 472.629C115.725 472.592 115.645 472.573 115.564 472.573C115.483 472.573 115.404 472.592 115.331 472.629L113.898 473.445C113.793 473.527 113.782 473.667 113.898 473.725Z" fill="#000A25"/>
<path d="M111.789 472.501L113.281 473.364C113.355 473.401 113.437 473.42 113.52 473.42C113.602 473.42 113.684 473.401 113.758 473.364L115.18 472.548C115.32 472.466 115.343 472.338 115.18 472.268L113.723 471.335C113.649 471.298 113.567 471.279 113.485 471.279C113.402 471.279 113.32 471.298 113.246 471.335L111.824 472.151C111.673 472.303 111.661 472.431 111.789 472.501Z" fill="#000A25"/>
<path d="M109.669 471.335L111.16 472.198C111.234 472.235 111.316 472.254 111.399 472.254C111.482 472.254 111.564 472.235 111.638 472.198L113.071 471.37C113.211 471.288 113.222 471.16 113.071 471.09L111.603 470.169C111.529 470.132 111.447 470.113 111.364 470.113C111.281 470.113 111.199 470.132 111.125 470.169L109.704 470.997C109.564 471.09 109.541 471.207 109.669 471.335Z" fill="#000A25"/>
<path d="M107.548 470.053L109.051 470.915C109.123 470.952 109.203 470.971 109.284 470.971C109.365 470.971 109.445 470.952 109.517 470.915L110.95 470.088C111.09 470.006 111.102 469.878 110.95 469.808L109.459 468.945C109.385 468.908 109.303 468.889 109.22 468.889C109.137 468.889 109.056 468.908 108.981 468.945L107.548 469.773C107.443 469.866 107.432 469.983 107.548 470.053Z" fill="#000A25"/>
<path d="M105.428 468.829L106.919 469.703C106.993 469.74 107.075 469.759 107.158 469.759C107.241 469.759 107.322 469.74 107.397 469.703L108.818 468.875C108.958 468.794 108.981 468.677 108.818 468.607L107.327 467.732C107.253 467.696 107.171 467.676 107.088 467.676C107.005 467.676 106.923 467.696 106.849 467.732L105.428 468.56C105.334 468.642 105.311 468.759 105.428 468.829Z" fill="#000A25"/>
<path d="M103.319 467.616L104.81 468.478C104.884 468.515 104.966 468.535 105.049 468.535C105.132 468.535 105.214 468.515 105.288 468.478L106.721 467.651C106.861 467.569 106.872 467.452 106.721 467.382L105.218 466.52C105.144 466.483 105.062 466.463 104.979 466.463C104.896 466.463 104.814 466.483 104.74 466.52L103.319 467.347C103.214 467.417 103.202 467.546 103.319 467.616Z" fill="#000A25"/>
<path d="M101.198 466.391L102.701 467.254C102.775 467.291 102.857 467.31 102.94 467.31C103.023 467.31 103.105 467.291 103.179 467.254L104.6 466.426C104.74 466.345 104.752 466.228 104.6 466.158L103.097 465.272C103.023 465.235 102.941 465.216 102.858 465.216C102.776 465.216 102.694 465.235 102.62 465.272L101.186 466.1C101.093 466.193 101.082 466.321 101.198 466.391Z" fill="#000A25"/>
<path d="M99.0892 465.167L100.581 466.03C100.655 466.067 100.737 466.086 100.819 466.086C100.902 466.086 100.984 466.067 101.058 466.03L102.48 465.214C102.62 465.132 102.643 465.004 102.48 464.934L100.988 464.071C100.914 464.034 100.832 464.015 100.75 464.015C100.667 464.015 100.585 464.034 100.511 464.071L99.0892 464.887C98.9843 464.969 98.961 465.097 99.0892 465.167Z" fill="#000A25"/>
<path d="M96.9686 463.943L98.46 464.805C98.5342 464.842 98.6159 464.862 98.6988 464.862C98.7817 464.862 98.8635 464.842 98.9377 464.805L100.371 463.989C100.511 463.908 100.522 463.779 100.371 463.709L98.8678 462.847C98.7956 462.81 98.7157 462.791 98.6347 462.791C98.5537 462.791 98.4739 462.81 98.4017 462.847L96.9686 463.663C96.8637 463.744 96.8521 463.873 96.9686 463.943Z" fill="#000A25"/>
<path d="M94.8597 462.719L96.3511 463.581C96.426 463.616 96.5075 463.634 96.5899 463.634C96.6724 463.634 96.7539 463.616 96.8288 463.581L98.2503 462.754C98.3901 462.672 98.4134 462.544 98.2503 462.474L96.7589 461.611C96.6847 461.574 96.6029 461.555 96.52 461.555C96.4371 461.555 96.3554 461.574 96.2812 461.611L94.848 462.439C94.7432 462.532 94.7315 462.649 94.8597 462.719Z" fill="#000A25"/>
<path d="M92.7391 461.494L94.2305 462.357C94.3047 462.394 94.3865 462.413 94.4694 462.413C94.5523 462.413 94.634 462.394 94.7082 462.357L96.1414 461.529C96.2812 461.448 96.2928 461.32 96.1414 461.25L94.65 460.387C94.5758 460.35 94.494 460.331 94.4111 460.331C94.3282 460.331 94.2465 460.35 94.1723 460.387L92.7508 461.215C92.611 461.308 92.611 461.424 92.7391 461.494Z" fill="#000A25"/>
<path d="M89.6048 459.675L92.1215 461.121C92.1928 461.161 92.273 461.182 92.3546 461.182C92.4362 461.182 92.5164 461.161 92.5876 461.121L94.0207 460.293C94.1606 460.211 94.1722 460.095 94.0207 460.025L91.504 458.567C91.4298 458.53 91.348 458.511 91.2652 458.511C91.1823 458.511 91.1005 458.53 91.0263 458.567L89.6048 459.384C89.5 459.489 89.4766 459.675 89.6048 459.675Z" fill="#000A25"/>
<path d="M112.943 475.544L114.434 476.407C114.508 476.444 114.59 476.463 114.673 476.463C114.756 476.463 114.838 476.444 114.912 476.407L116.345 475.579C116.485 475.498 116.497 475.381 116.345 475.311L114.842 474.448C114.768 474.411 114.686 474.392 114.603 474.392C114.52 474.392 114.439 474.411 114.364 474.448L112.943 475.276C112.838 475.346 112.826 475.474 112.943 475.544Z" fill="#000A25"/>
<path d="M110.822 474.32L112.314 475.183C112.388 475.22 112.47 475.239 112.552 475.239C112.635 475.239 112.717 475.22 112.791 475.183L114.224 474.355C114.364 474.274 114.376 474.157 114.224 474.087L112.721 473.224C112.647 473.187 112.565 473.168 112.483 473.168C112.4 473.168 112.318 473.187 112.244 473.224L110.822 474.052C110.717 474.122 110.706 474.25 110.822 474.32Z" fill="#000A25"/>
<path d="M108.702 473.096L110.193 473.959C110.267 473.996 110.349 474.015 110.432 474.015C110.515 474.015 110.597 473.996 110.671 473.959L112.104 473.131C112.244 473.049 112.255 472.933 112.104 472.863L110.601 472C110.527 471.963 110.445 471.944 110.362 471.944C110.279 471.944 110.197 471.963 110.123 472L108.702 472.828C108.597 472.898 108.585 473.026 108.702 473.096Z" fill="#000A25"/>
<path d="M106.593 471.871L108.084 472.734C108.158 472.771 108.24 472.79 108.323 472.79C108.406 472.79 108.488 472.771 108.562 472.734L109.995 471.906C110.135 471.825 110.146 471.708 109.995 471.638L108.492 470.775C108.42 470.738 108.34 470.719 108.259 470.719C108.178 470.719 108.098 470.738 108.026 470.775L106.593 471.603C106.476 471.673 106.465 471.801 106.593 471.871Z" fill="#000A25"/>
<path d="M104.484 470.647L105.975 471.51C106.049 471.55 106.131 471.571 106.214 471.571C106.298 471.571 106.38 471.55 106.453 471.51L107.874 470.682C108.014 470.601 108.038 470.484 107.874 470.414L106.383 469.54C106.309 469.503 106.227 469.483 106.144 469.483C106.061 469.483 105.98 469.503 105.905 469.54L104.484 470.367C104.379 470.461 104.356 470.577 104.484 470.647Z" fill="#000A25"/>
<path d="M102.363 469.423L103.855 470.286C103.929 470.323 104.011 470.342 104.093 470.342C104.176 470.342 104.258 470.323 104.332 470.286L105.754 469.458C105.894 469.376 105.917 469.26 105.754 469.178L104.262 468.304C104.188 468.267 104.106 468.248 104.024 468.248C103.941 468.248 103.859 468.267 103.785 468.304L102.363 469.132C102.258 469.237 102.235 469.353 102.363 469.423Z" fill="#000A25"/>
<path d="M100.243 468.199L101.734 469.061C101.808 469.098 101.89 469.118 101.973 469.118C102.056 469.118 102.138 469.098 102.212 469.061L103.633 468.234C103.773 468.152 103.796 468.024 103.633 467.954L102.142 467.091C102.068 467.054 101.986 467.035 101.903 467.035C101.82 467.035 101.738 467.054 101.664 467.091L100.243 467.919C100.138 468.012 100.114 468.129 100.243 468.199Z" fill="#000A25"/>
<path d="M98.1221 466.974L99.6018 467.837C99.6761 467.874 99.7578 467.894 99.8407 467.894C99.9236 467.894 100.005 467.874 100.08 467.837L101.501 467.009C101.653 466.928 101.664 466.8 101.501 466.73L100.01 465.867C99.9354 465.83 99.8537 465.811 99.7708 465.811C99.6879 465.811 99.6061 465.83 99.5319 465.867L98.1105 466.695C98.0172 466.788 97.9939 466.905 98.1221 466.974Z" fill="#000A25"/>
<path d="M96.0016 465.75L97.4929 466.613C97.5672 466.65 97.6489 466.669 97.7318 466.669C97.8147 466.669 97.8965 466.65 97.9707 466.613L99.4038 465.785C99.5436 465.703 99.5553 465.575 99.4038 465.505L97.9124 464.642C97.8382 464.605 97.7564 464.586 97.6736 464.586C97.5907 464.586 97.5089 464.605 97.4347 464.642L96.0132 465.47C95.8967 465.563 95.8734 465.68 96.0016 465.75Z" fill="#000A25"/>
<path d="M93.8809 464.526L95.3723 465.389C95.4465 465.426 95.5282 465.445 95.6111 465.445C95.694 465.445 95.7758 465.426 95.85 465.389L97.2831 464.561C97.4229 464.479 97.4346 464.351 97.2831 464.281L95.7801 463.418C95.7059 463.381 95.6241 463.362 95.5412 463.362C95.4583 463.362 95.3766 463.381 95.3024 463.418L93.8809 464.246C93.776 464.339 93.776 464.456 93.8809 464.526Z" fill="#000A25"/>
<path d="M91.7603 463.302L93.2517 464.165C93.3259 464.201 93.4077 464.221 93.4906 464.221C93.5735 464.221 93.6552 464.201 93.7294 464.165L95.1626 463.348C95.3024 463.267 95.314 463.138 95.1626 463.068L93.6595 462.206C93.5853 462.169 93.5036 462.149 93.4207 462.149C93.3378 462.149 93.256 462.169 93.1818 462.206L91.7603 463.033C91.6555 463.173 91.6438 463.232 91.7603 463.302Z" fill="#000A25"/>
<path d="M89.6398 462.077L91.1312 462.94C91.2054 462.977 91.2872 462.996 91.3701 462.996C91.453 462.996 91.5347 462.977 91.6089 462.94L93.0421 462.124C93.1819 462.042 93.1936 461.914 93.0421 461.844L91.539 460.981C91.4648 460.944 91.3831 460.925 91.3002 460.925C91.2173 460.925 91.1355 460.944 91.0613 460.981L89.6398 461.797C89.535 461.879 89.5233 462.007 89.6398 462.077Z" fill="#000A25"/>
<path d="M115.063 476.769L117.58 478.215C117.654 478.252 117.736 478.271 117.819 478.271C117.902 478.271 117.984 478.252 118.058 478.215L119.479 477.387C119.619 477.305 119.631 477.177 119.479 477.107L116.963 475.661C116.888 475.627 116.806 475.609 116.724 475.609C116.641 475.609 116.56 475.627 116.485 475.661L115.063 476.489C114.958 476.571 114.935 476.699 115.063 476.769Z" fill="#000A25"/>
<path d="M89.465 459.745L90.9564 460.608C91.0846 460.678 91.0846 460.795 90.9564 460.865L89.4534 461.739C89.3848 461.774 89.3089 461.792 89.232 461.792C89.1551 461.792 89.0792 461.774 89.0106 461.739L88.8941 461.669C88.8297 461.635 88.7576 461.616 88.6844 461.616C88.6112 461.616 88.5391 461.635 88.4747 461.669L86.8901 462.59C86.8215 462.625 86.7456 462.643 86.6687 462.643C86.5918 462.643 86.5159 462.625 86.4473 462.59L85.4919 462.042C85.467 462.032 85.4457 462.014 85.4308 461.991C85.4159 461.968 85.408 461.941 85.408 461.914C85.408 461.887 85.4159 461.86 85.4308 461.837C85.4457 461.815 85.467 461.797 85.4919 461.786L86.9833 460.923L87.2979 460.748L87.5193 460.62L87.7406 460.492L89.0223 459.745C89.0909 459.711 89.1667 459.692 89.2437 459.692C89.3206 459.692 89.3964 459.711 89.465 459.745Z" fill="#000A25"/>
<path d="M109.925 480.908L111.416 481.771C111.491 481.808 111.572 481.827 111.655 481.827C111.738 481.827 111.82 481.808 111.894 481.771L113.316 480.943C113.455 480.861 113.479 480.745 113.316 480.675L111.824 479.812C111.75 479.775 111.668 479.756 111.585 479.756C111.503 479.756 111.421 479.775 111.347 479.812L109.925 480.628C109.809 480.663 109.797 480.838 109.925 480.908Z" fill="#000A25"/>
<path d="M107.758 479.684L109.261 480.547C109.335 480.584 109.417 480.603 109.5 480.603C109.583 480.603 109.664 480.584 109.739 480.547L111.16 479.719C111.3 479.637 111.312 479.509 111.16 479.439L109.669 478.576C109.595 478.539 109.513 478.52 109.43 478.52C109.347 478.52 109.265 478.539 109.191 478.576L107.758 479.404C107.758 479.497 107.688 479.614 107.758 479.684Z" fill="#000A25"/>
<path d="M105.696 478.471L107.199 479.334C107.271 479.371 107.351 479.39 107.432 479.39C107.513 479.39 107.593 479.371 107.665 479.334L109.098 478.506C109.238 478.424 109.249 478.308 109.098 478.238L107.606 477.375C107.532 477.338 107.45 477.319 107.368 477.319C107.285 477.319 107.203 477.338 107.129 477.375L105.696 478.203C105.591 478.331 105.579 478.401 105.696 478.471Z" fill="#000A25"/>
<path d="M87.729 468.082L89.2204 468.945C89.2946 468.982 89.3763 469.001 89.4592 469.001C89.5421 469.001 89.6239 468.982 89.6981 468.945L91.1312 468.117C91.2711 468.035 91.2827 467.907 91.1312 467.837L89.6398 466.974C89.5656 466.937 89.4839 466.918 89.401 466.918C89.3181 466.918 89.2363 466.937 89.1621 466.974L87.7406 467.802C87.6241 467.895 87.6125 468.012 87.729 468.082Z" fill="#000A25"/>
<path d="M85.6201 466.87L87.1115 467.732C87.1857 467.769 87.2674 467.789 87.3503 467.789C87.4332 467.789 87.515 467.769 87.5892 467.732L89.0107 466.905C89.1621 466.823 89.1738 466.706 89.0107 466.636L87.5193 465.774C87.4451 465.737 87.3633 465.717 87.2804 465.717C87.1975 465.717 87.1158 465.737 87.0416 465.774L85.6201 466.601C85.5152 466.671 85.4919 466.8 85.6201 466.87Z" fill="#000A25"/>
<path d="M83.5111 465.645L85.0025 466.508C85.0767 466.545 85.1584 466.564 85.2413 466.564C85.3242 466.564 85.406 466.545 85.4802 466.508L86.9016 465.692C87.0415 465.61 87.0648 465.482 86.9016 465.412L85.4103 464.549C85.3361 464.512 85.2543 464.493 85.1714 464.493C85.0885 464.493 85.0068 464.512 84.9325 464.549L83.5111 465.366C83.4062 465.505 83.3829 465.575 83.5111 465.645Z" fill="#000A25"/>
<path d="M81.4022 464.421L82.8936 465.295C82.9678 465.332 83.0495 465.351 83.1324 465.351C83.2153 465.351 83.2971 465.332 83.3713 465.295L84.7928 464.467C84.9326 464.386 84.9559 464.269 84.7928 464.199L83.2897 463.301C83.2155 463.264 83.1337 463.245 83.0509 463.245C82.968 463.245 82.8862 463.264 82.812 463.301L81.3905 464.129C81.2857 464.234 81.274 464.339 81.4022 464.421Z" fill="#000A25"/>
<path d="M103.097 476.932L105.136 478.098C105.209 478.135 105.288 478.154 105.369 478.154C105.45 478.154 105.53 478.135 105.602 478.098L107.036 477.282C107.175 477.2 107.187 477.072 107.036 477.002L104.997 475.836C104.922 475.799 104.841 475.78 104.758 475.78C104.675 475.78 104.593 475.799 104.519 475.836L103.097 476.664C102.934 476.745 102.923 476.862 103.097 476.932Z" fill="#000A25"/>
<path d="M89.8378 469.307L91.8768 470.473C91.951 470.51 92.0328 470.529 92.1157 470.529C92.1986 470.529 92.2804 470.51 92.3546 470.473L93.776 469.645C93.9159 469.563 93.9392 469.447 93.776 469.377L91.737 468.211C91.6628 468.174 91.5811 468.154 91.4982 468.154C91.4153 468.154 91.3335 468.174 91.2593 468.211L89.8378 469.038C89.733 469.108 89.7213 469.237 89.8378 469.307Z" fill="#000A25"/>
<path d="M92.4945 470.834L102.433 476.582C102.507 476.619 102.589 476.638 102.672 476.638C102.755 476.638 102.837 476.619 102.911 476.582L104.332 475.754C104.472 475.673 104.484 475.556 104.332 475.486L94.3937 469.738C94.3195 469.701 94.2377 469.682 94.1548 469.682C94.0719 469.682 93.9901 469.701 93.9159 469.738L92.4945 470.566C92.3896 470.647 92.3663 470.764 92.4945 470.834Z" fill="#000A25"/>
<path d="M110.321 476.395L111.813 477.258C111.887 477.295 111.969 477.314 112.051 477.314C112.134 477.314 112.216 477.295 112.29 477.258L113.712 476.442C113.852 476.36 113.875 476.232 113.712 476.162L112.22 475.299C112.146 475.262 112.064 475.243 111.982 475.243C111.899 475.243 111.817 475.262 111.743 475.299L110.31 476.116C110.205 476.197 110.193 476.325 110.321 476.395Z" fill="#000A25"/>
<path d="M108.201 475.171L109.692 476.034C109.766 476.071 109.848 476.09 109.931 476.09C110.014 476.09 110.096 476.071 110.17 476.034L111.603 475.218C111.743 475.136 111.754 475.008 111.603 474.938L110.088 474.052C110.014 474.015 109.932 473.996 109.849 473.996C109.766 473.996 109.685 474.015 109.611 474.052L108.189 474.88C108.096 474.973 108.084 475.101 108.201 475.171Z" fill="#000A25"/>
<path d="M106.092 473.947L107.583 474.81C107.657 474.847 107.739 474.866 107.822 474.866C107.905 474.866 107.987 474.847 108.061 474.81L109.482 473.982C109.622 473.9 109.645 473.772 109.482 473.702L107.991 472.839C107.917 472.802 107.835 472.783 107.752 472.783C107.669 472.783 107.587 472.802 107.513 472.839L106.127 473.667C105.987 473.761 105.964 473.877 106.092 473.947Z" fill="#000A25"/>
<path d="M103.971 472.735L105.474 473.597C105.546 473.634 105.626 473.653 105.707 473.653C105.788 473.653 105.868 473.634 105.94 473.597L107.373 472.77C107.513 472.688 107.525 472.571 107.373 472.501L105.87 471.639C105.798 471.602 105.718 471.583 105.637 471.583C105.556 471.583 105.476 471.602 105.404 471.639L103.971 472.466C103.866 472.501 103.855 472.665 103.971 472.735Z" fill="#000A25"/>
<path d="M101.862 471.51L103.354 472.373C103.428 472.41 103.51 472.429 103.593 472.429C103.675 472.429 103.757 472.41 103.831 472.373L105.253 471.557C105.404 471.475 105.416 471.347 105.253 471.277L103.761 470.414C103.687 470.377 103.605 470.358 103.523 470.358C103.44 470.358 103.358 470.377 103.284 470.414L101.862 471.23C101.757 471.335 101.734 471.44 101.862 471.51Z" fill="#000A25"/>
<path d="M99.7416 470.286L101.245 471.149C101.319 471.186 101.401 471.205 101.483 471.205C101.566 471.205 101.648 471.186 101.722 471.149L103.144 470.333C103.284 470.251 103.295 470.123 103.144 470.053L101.652 469.19C101.578 469.153 101.496 469.134 101.414 469.134C101.331 469.134 101.249 469.153 101.175 469.19L99.7416 470.018C99.6018 470.088 99.6018 470.169 99.7416 470.286Z" fill="#000A25"/>
<path d="M97.6327 469.062L99.1241 469.925C99.1983 469.962 99.2801 469.981 99.363 469.981C99.4458 469.981 99.5276 469.962 99.6018 469.925L101.035 469.097C101.175 469.015 101.186 468.899 101.035 468.817L99.6018 467.942C99.5276 467.905 99.4458 467.886 99.363 467.886C99.2801 467.886 99.1983 467.905 99.1241 467.942L97.7026 468.77C97.5278 468.875 97.5162 469.003 97.6327 469.062Z" fill="#000A25"/>
<path d="M95.5238 467.837L97.0152 468.7C97.0894 468.737 97.1712 468.756 97.2541 468.756C97.337 468.756 97.4187 468.737 97.4929 468.7L98.9144 467.872C99.0542 467.791 99.0775 467.674 98.9144 467.604L97.423 466.741C97.3488 466.704 97.267 466.685 97.1842 466.685C97.1013 466.685 97.0195 466.704 96.9453 466.741L95.5238 467.569C95.4073 467.651 95.3956 467.837 95.5238 467.837Z" fill="#000A25"/>
<path d="M93.4032 466.671L94.8946 467.534C94.9688 467.571 95.0505 467.59 95.1334 467.59C95.2163 467.59 95.2981 467.571 95.3723 467.534L96.8054 466.718C96.9452 466.636 96.9569 466.508 96.8054 466.438L95.3373 465.505C95.2652 465.468 95.1853 465.449 95.1043 465.449C95.0233 465.449 94.9434 465.468 94.8713 465.505L93.4381 466.321C93.2983 466.426 93.2867 466.555 93.4032 466.671Z" fill="#000A25"/>
<path d="M91.2943 465.4L92.7857 466.263C92.8599 466.3 92.9416 466.319 93.0245 466.319C93.1074 466.319 93.1892 466.3 93.2634 466.263L94.6849 465.447C94.8247 465.365 94.848 465.237 94.6849 465.167L93.2284 464.339C93.1542 464.302 93.0725 464.283 92.9896 464.283C92.9067 464.283 92.8249 464.302 92.7507 464.339L91.3292 465.167C91.1894 465.214 91.1661 465.331 91.2943 465.4Z" fill="#000A25"/>
<path d="M89.1737 464.176L90.6767 465.039C90.7489 465.076 90.8288 465.095 90.9098 465.095C90.9908 465.095 91.0706 465.076 91.1428 465.039L92.5759 464.211C92.7158 464.129 92.7274 464.013 92.5759 463.931L91.0845 463.068C91.0103 463.031 90.9286 463.012 90.8457 463.012C90.7628 463.012 90.681 463.031 90.6068 463.068L89.1737 463.896C89.1154 463.99 89.1154 464.106 89.1737 464.176Z" fill="#000A25"/>
<path d="M87.0648 462.963L88.5562 463.826C88.6304 463.863 88.7121 463.882 88.795 463.882C88.8779 463.882 88.9597 463.863 89.0339 463.826L90.4554 462.998C90.6068 462.917 90.6185 462.8 90.4554 462.73L88.964 461.867C88.8898 461.83 88.808 461.811 88.7251 461.811C88.6422 461.811 88.5605 461.83 88.4863 461.867L87.0648 462.695C86.9599 462.765 86.9366 462.893 87.0648 462.963Z" fill="#000A25"/>
<path d="M112.418 477.62L115.506 479.404C115.58 479.441 115.662 479.46 115.745 479.46C115.828 479.46 115.91 479.441 115.984 479.404L117.417 478.576C117.557 478.495 117.568 478.378 117.417 478.308L114.318 476.524C114.243 476.487 114.162 476.468 114.079 476.468C113.996 476.468 113.914 476.487 113.84 476.524L112.418 477.352C112.325 477.422 112.314 477.55 112.418 477.62Z" fill="#000A25"/>
<path d="M109.319 478.18L110.811 479.054C110.885 479.091 110.967 479.11 111.049 479.11C111.132 479.11 111.214 479.091 111.288 479.054L112.71 478.226C112.85 478.145 112.873 478.028 112.71 477.958L111.253 477.072C111.18 477.032 111.098 477.011 111.014 477.011C110.931 477.011 110.849 477.032 110.776 477.072L109.354 477.9C109.203 477.993 109.191 478.11 109.319 478.18Z" fill="#000A25"/>
<path d="M107.199 476.967L108.69 477.83C108.764 477.867 108.846 477.886 108.929 477.886C109.012 477.886 109.093 477.867 109.168 477.83L110.601 477.002C110.741 476.92 110.752 476.804 110.601 476.734L109.098 475.871C109.026 475.834 108.946 475.815 108.865 475.815C108.784 475.815 108.704 475.834 108.632 475.871L107.199 476.699C107.094 476.769 107.082 476.897 107.199 476.967Z" fill="#000A25"/>
<path d="M105.09 475.743L106.581 476.605C106.655 476.642 106.737 476.662 106.82 476.662C106.903 476.662 106.985 476.642 107.059 476.605L108.48 475.789C108.62 475.708 108.643 475.579 108.48 475.509L106.989 474.647C106.915 474.61 106.833 474.59 106.75 474.59C106.667 474.59 106.585 474.61 106.511 474.647L105.09 475.463C104.985 475.544 104.962 475.673 105.09 475.743Z" fill="#000A25"/>
<path d="M102.969 474.518L104.472 475.381C104.546 475.418 104.628 475.437 104.711 475.437C104.794 475.437 104.876 475.418 104.95 475.381L106.371 474.553C106.511 474.472 106.523 474.343 106.371 474.274L104.88 473.411C104.806 473.374 104.724 473.354 104.641 473.354C104.558 473.354 104.477 473.374 104.402 473.411L102.969 474.239C102.864 474.332 102.853 474.448 102.969 474.518Z" fill="#000A25"/>
<path d="M100.86 473.305L102.352 474.168C102.426 474.205 102.507 474.224 102.59 474.224C102.673 474.224 102.755 474.205 102.829 474.168L104.262 473.317C104.402 473.235 104.414 473.119 104.262 473.049L102.771 472.186C102.697 472.149 102.615 472.13 102.532 472.13C102.449 472.13 102.367 472.149 102.293 472.186L100.872 473.014C100.767 473.107 100.767 473.235 100.86 473.305Z" fill="#000A25"/>
<path d="M98.7512 472.082L100.243 472.944C100.317 472.981 100.399 473.001 100.481 473.001C100.564 473.001 100.646 472.981 100.72 472.944L102.142 472.128C102.282 472.046 102.305 471.918 102.142 471.848L100.65 470.985C100.576 470.948 100.494 470.929 100.412 470.929C100.329 470.929 100.247 470.948 100.173 470.985L98.7512 471.802C98.6347 471.883 98.6231 472.012 98.7512 472.082Z" fill="#000A25"/>
<path d="M96.6307 470.857L98.1221 471.72C98.1963 471.757 98.278 471.776 98.3609 471.776C98.4438 471.776 98.5256 471.757 98.5998 471.72L100.033 470.904C100.173 470.822 100.184 470.694 100.033 470.624L98.5299 469.761C98.4577 469.724 98.3779 469.705 98.2968 469.705C98.2158 469.705 98.136 469.724 98.0638 469.761L96.6307 470.589C96.5258 470.659 96.5142 470.787 96.6307 470.857Z" fill="#000A25"/>
<path d="M94.5218 469.633L96.0132 470.496C96.0874 470.533 96.1692 470.552 96.2521 470.552C96.3349 470.552 96.4167 470.533 96.4909 470.496L97.9124 469.668C98.0522 469.586 98.0755 469.47 97.9124 469.388L96.421 468.525C96.3468 468.488 96.265 468.469 96.1821 468.469C96.0993 468.469 96.0175 468.488 95.9433 468.525L94.5218 469.353C94.4169 469.447 94.3936 469.563 94.5218 469.633Z" fill="#000A25"/>
<path d="M92.4012 468.42L93.9042 469.283C93.9784 469.32 94.0602 469.339 94.1431 469.339C94.226 469.339 94.3077 469.32 94.3819 469.283L95.8034 468.455C95.9433 468.374 95.9549 468.257 95.8034 468.187L94.312 467.324C94.2378 467.287 94.1561 467.268 94.0732 467.268C93.9903 467.268 93.9085 467.287 93.8343 467.324L92.4012 468.152C92.2963 468.222 92.2847 468.35 92.4012 468.42Z" fill="#000A25"/>
<path d="M90.2806 467.196L91.772 468.059C91.8462 468.096 91.928 468.115 92.0109 468.115C92.0938 468.115 92.1755 468.096 92.2497 468.059L93.6829 467.243C93.8227 467.161 93.8343 467.033 93.6829 466.963L92.1798 466.1C92.1056 466.063 92.0239 466.044 91.941 466.044C91.8581 466.044 91.7763 466.063 91.7021 466.1L90.2806 466.916C90.1874 466.998 90.1758 467.126 90.2806 467.196Z" fill="#000A25"/>
<path d="M88.1834 465.972L89.6748 466.834C89.749 466.871 89.8307 466.891 89.9136 466.891C89.9965 466.891 90.0783 466.871 90.1525 466.834L91.574 466.006C91.7138 465.925 91.7371 465.797 91.574 465.727L90.0826 464.864C90.0084 464.827 89.9266 464.808 89.8437 464.808C89.7608 464.808 89.679 464.827 89.6048 464.864L88.1834 465.692C88.0668 465.785 88.0552 465.902 88.1834 465.972Z" fill="#000A25"/>
<path d="M83.4529 463.243L87.5658 465.575C87.638 465.612 87.7178 465.631 87.7989 465.631C87.8799 465.631 87.9597 465.612 88.0319 465.575L89.465 464.747C89.6048 464.666 89.6165 464.549 89.465 464.479L85.352 462.147C85.2778 462.11 85.1961 462.091 85.1132 462.091C85.0303 462.091 84.9485 462.11 84.8743 462.147L83.4529 462.963C83.348 463.045 83.2897 463.173 83.4529 463.243Z" fill="#000A25"/>
<path d="M111.428 479.404L113.467 480.57C113.542 480.605 113.624 480.623 113.706 480.623C113.788 480.623 113.87 480.605 113.945 480.57L115.366 479.742C115.506 479.661 115.529 479.532 115.366 479.462L113.327 478.296C113.253 478.259 113.171 478.24 113.088 478.24C113.006 478.24 112.924 478.259 112.85 478.296L111.428 479.124C111.323 479.218 111.253 479.334 111.428 479.404Z" fill="#000A25"/>
<path d="M126.924 475.206L93.007 455.594V428.904L93.2633 428.298L93.5429 428.158C93.8972 427.953 94.299 427.846 94.7081 427.846C95.1171 427.846 95.519 427.953 95.8732 428.158L126.913 446.103C127.268 446.308 127.563 446.604 127.768 446.96C127.973 447.317 128.08 447.721 128.078 448.132V473.177C127.88 474.472 127.647 474.833 126.924 475.206Z" fill="#E5E5E5"/>
<path d="M123.814 449.333L93.007 429.791V428.904L93.2633 428.298L93.5429 428.158C93.8972 427.953 94.299 427.846 94.7081 427.846C95.1171 427.846 95.519 427.953 95.8732 428.158L126.913 446.103C127.289 446.323 127.599 446.642 127.81 447.024L123.814 449.333Z" fill="#E5E5E5"/>
<path d="M93.776 428.298L126.4 447.117C126.572 447.219 126.716 447.364 126.816 447.538C126.916 447.712 126.969 447.908 126.971 448.108V475.206L93.007 455.594V428.776C93.0046 428.685 93.0261 428.594 93.0695 428.513C93.1129 428.433 93.1767 428.365 93.2545 428.316C93.3323 428.268 93.4213 428.241 93.5128 428.238C93.6043 428.234 93.6951 428.255 93.776 428.298Z" fill="#DCEEFF"/>
<path d="M93.776 428.298L126.4 447.117C126.572 447.219 126.716 447.364 126.816 447.538C126.916 447.712 126.969 447.908 126.971 448.108V475.206L93.007 455.594V428.776C93.0046 428.685 93.0261 428.594 93.0695 428.513C93.1129 428.433 93.1767 428.365 93.2545 428.316C93.3323 428.268 93.4213 428.241 93.5128 428.238C93.6043 428.234 93.6951 428.255 93.776 428.298Z" fill="#F4F4F4"/>
<path d="M126.925 475.195V474.239L93.0071 454.626V455.594L126.925 475.195Z" fill="#DBDBDB"/>
<path d="M93.8809 454.172V429.697L94.3003 429.942V453.973L93.8809 454.172Z" fill="#1E3779"/>
<path d="M94.3003 429.942V453.973L125.841 472.151V448.166L94.3003 429.942Z" fill="#000A25"/>
<path d="M93.8809 454.171L125.841 472.629V472.151L94.3003 453.973L93.8809 454.171Z" fill="#031F60"/>
<path d="M57.3535 424.054C56.5495 426.059 58.6002 428.531 64.0647 430.245C69.5293 431.959 70.0303 429.756 70.0303 429.756C73.6728 431.388 77.2239 433.218 80.6681 435.236C83.9422 437.568 85.3986 444.179 85.8414 455.396C86.354 468.385 86.4007 487.648 85.9695 490.971C85.9695 490.971 79.8292 497.08 71.9877 496.439C64.1463 495.798 50.9218 488.825 47.7177 483.473C47.7992 472.093 49.1391 470.239 47.2982 463.651C43.0804 448.645 40.8549 442.488 42.9056 432.519C44.5951 424.299 46.9603 423.273 50.2111 423.354C52.6026 423.461 54.9867 423.694 57.3535 424.054Z" fill="#F4F4F4"/>
<path d="M98.7512 469.318C92.3196 470.939 90.8049 466.881 89.9543 463.488C87.9503 455.361 86.7851 448.015 85.2704 443.351C83.4761 437.894 81.5885 437.02 78.932 435.959C75.821 434.711 73.1062 437.346 74.1898 444.284C75.4132 452.504 77.0211 458.276 80.0855 467.989C80.8894 470.53 82.6838 475.043 85.3753 477.223C88.7076 479.905 93.7061 479.789 101.291 477.911C104.519 477.107 108.061 475.171 114.108 472.314C115.751 471.557 117.032 471.044 120.178 469.574C123.337 468.152 126.107 465.988 128.253 463.266C129.907 460.876 130.129 459.768 129.791 459.209C129.453 458.649 128.626 458.672 127.74 459.675C126.458 461.378 124.879 462.836 123.08 463.978C123.08 463.978 125.107 461.867 126.214 460.48C127.23 459.288 128.076 457.962 128.731 456.538C129.313 455.151 128.113 453.25 127.204 454.206C126.295 455.163 125.853 456.224 124.186 458.218C123.31 459.282 122.309 460.238 121.204 461.063C122.239 459.667 123.158 458.189 123.953 456.643C124.667 455.431 125.015 454.038 124.955 452.632C124.955 451.909 123.883 451.047 122.916 452.423C121.949 453.798 121.483 455.606 119.421 457.716C117.953 459.244 116.706 460.118 116.66 459.698C116.613 459.279 117.557 458.427 118.081 456.655C118.605 454.883 118.081 452.994 117.091 452.784C116.1 452.574 116.298 452.632 115.518 454.3C114.737 455.967 113.584 457.226 112.616 459.675C112.126 461.391 111.217 462.957 109.972 464.234C108.387 465.913 104.88 467.837 98.7512 469.318Z" fill="#FFCEA9"/>
<path d="M76.5552 434.874C80.8546 434.233 83.8956 436.169 85.7948 442.698C87.694 449.228 89.0223 454.58 89.0223 454.58C87.3174 457.04 84.7371 458.754 81.81 459.372C76.6717 460.608 74.8191 458.148 74.8191 458.148C74.8191 458.148 73.386 451.315 72.4888 446.663C71.5916 442.01 71.2305 435.656 76.5552 434.874Z" fill="#EDEDED"/>
<path d="M78.6291 401.468C78.6291 401.468 85.4219 391.126 70.6944 389.027C60.0682 387.5 53.2171 394.332 52.4598 401.748C51.7024 408.826 56.0601 416.183 59.206 419.098C60.744 419.646 64.0414 419.961 68.3874 417.991C68.5639 416.053 68.63 414.106 68.5855 412.161C68.5855 412.161 63.4821 401.282 78.6291 401.468Z" fill="#000A25"/>
<path d="M108.154 532.329V501.267L83.511 515.667L93.007 535.314L108.154 532.329Z" fill="#C4C7D6"/>
<path d="M92.005 503.062L101.466 497.57L108.154 501.429L98.3434 507.003L92.005 503.062Z" fill="#D6D8E5"/>
</g>
<defs>
<clipPath id="clip0">
<rect width="511" height="583" fill="white" transform="translate(0 0.230469)"/>
</clipPath>
</defs>
</svg>
